<?xml version="1.0" encoding="utf-8"?>
<!DOCTYPE svg PUBLIC "-//W3C//DTD SVG 1.1//EN" "http://www.w3.org/Graphics/SVG/1.1/DTD/svg11.dtd">
<svg version="1.1" xmlns="http://www.w3.org/2000/svg" xmlns:xlink="http://www.w3.org/1999/xlink" x="0px" y="0px" viewBox="0 0 256 256" enable-background="new 0 0 256 256" xml:space="preserve">
<path fill="#ffffff" d="M24.9,67l0.6,122.2c0,1.6,0.9,3,2.3,3.8l97.6,51.1c0.6,0.3,1.3,0.5,2,0.5l0,0c0.3,0.3,0.6,0.7,1,0.9c0.7,0.4,1.4,0.6,2.2,0.6c0.7,0,1.4-0.2,2-0.5l96.3-52.3c1.4-0.7,2.2-2.2,2.2-3.8V62.4c0,0,0-0.1,0-0.1c0,0,0-0.1,0-0.1c0-0.1,0-0.2-0.1-0.4c0-0.2-0.1-0.5-0.1-0.7c0-0.1-0.1-0.3-0.2-0.5c-0.1-0.2-0.2-0.4-0.3-0.6c-0.1-0.1-0.2-0.3-0.3-0.4c-0.1-0.2-0.3-0.3-0.4-0.5c-0.1-0.1-0.3-0.2-0.4-0.3c-0.1-0.1-0.2-0.1-0.3-0.2c-0.1,0-0.2-0.1-0.3-0.1c-0.1,0-0.1-0.1-0.2-0.1l-99.2-48.1c-1.2-0.5-2.5-0.4-3.6,0.1L27.5,61.6c-1.4,0.7-2.3,2.2-2.4,3.8c0,0,0,0,0,0.1C25,66,24.9,66.5,24.9,67z M217,62.8l-86.5,48.4L38.9,65.5L127.7,19L217,62.8z M134.8,234.5V118.6l87.8-49.1v117.4L134.8,234.5z"/>
</svg>